<?xml version="1.0" encoding="UTF-8"?>
<svg xmlns="http://www.w3.org/2000/svg" version="1.1" viewBox="0 0 24 24">
  <defs>
    <style>
      .cls-1 {
        fill: none;
        stroke: #fff;
        stroke-linecap: round;
        stroke-linejoin: round;
        stroke-width: 1.5px;
      }
    </style>
  </defs>
  <!-- Generator: Adobe Illustrator 28.6.0, SVG Export Plug-In . SVG Version: 1.2.0 Build 709)  -->
  <g>
    <g id="Layer_1">
      <path class="cls-1" d="M7,13.2l5.5-5.5c.4-.4,1-.4,1.4,0l2.1,2.1c.4.4.4,1,0,1.4l-1.9,1.9M7,13.2l-2.2,2.2c0,0-.2.2-.2.3l-1,2.5c-.5,1.2.7,2.5,2,2l2.5-1c.1,0,.2-.1.3-.2l5.7-5.7M7,13.2h7.1"/>
      <path class="cls-1" d="M13.9,3.5l2.1,2.1M20.2,9.8l-2.1-2.1M16,5.6l1.4-1.4c.4-.4,1-.4,1.4,0l.7.7c.4.4.4,1,0,1.4l-1.4,1.4M16,5.6l2.1,2.1"/>
    </g>
  </g>
</svg>