<?xml version="1.0" encoding="UTF-8"?>
<svg xmlns="http://www.w3.org/2000/svg" version="1.1" viewBox="0 0 24 24">
  <defs>
    <style>
      .cls-1 {
        stroke: #f7f7f7;
        stroke-linecap: round;
        stroke-linejoin: round;
      }

      .cls-1, .cls-2 {
        fill: none;
        stroke-width: 1.5px;
      }

      .cls-3 {
        fill: #f7f7f7;
      }

      .cls-2 {
        stroke: #fff;
      }
    </style>
  </defs>
  <!-- Generator: Adobe Illustrator 28.6.0, SVG Export Plug-In . SVG Version: 1.2.0 Build 709)  -->
  <g>
    <g id="Layer_1">
      <path class="cls-2" d="M20.5,9.5c0,.2-.2.5-.4.6-.2.2-.4.3-.6.4-1.2.6-2.3,1.4-3,2.6-.7,1.1-1.1,2.4-1.1,3.8,0,.5,0,.9.1,1.4,0,.3,0,.6,0,.9,0,.3-.2.6-.3.8-.1.2-.3.4-.5.5-.2.1-.4.2-.7.3-.5.1-1.1.2-1.6.1-1.2,0-2.4-.2-3.5-.7s-2.1-1.2-3-2c-.8-.9-1.5-1.9-1.9-3-.4-1.1-.6-2.3-.6-3.5,0-2.2,1-4.4,2.6-6,1.6-1.6,3.7-2.6,5.9-2.7h.5c1.7,0,3.3.5,4.7,1.4,1.4.9,2.6,2.1,3.3,3.6.2.5.3,1,0,1.5h0Z"/>
      <path class="cls-1" d="M8,16h0"/>
      <path class="cls-3" d="M6,12.8c-.2,0-.3,0-.5-.2-.3-.3-.4-.7,0-1.1h0c.3-.3.7-.4,1.1,0s.3.7,0,1.1c-.1.2-.4.3-.6.3Z"/>
      <path class="cls-3" d="M8,8.8c-.2,0-.3,0-.5-.2-.3-.3-.4-.7,0-1.1h0c.3-.3.7-.4,1.1,0,.3.3.3.7,0,1.1-.1.2-.4.3-.6.3Z"/>
      <path class="cls-3" d="M12,6.8c-.2,0-.3,0-.5-.2-.3-.3-.4-.7,0-1.1h0c.3-.3.7-.4,1.1,0,.3.3.3.7,0,1.1-.1.2-.4.3-.6.3Z"/>
      <path class="cls-3" d="M16,8.8c-.2,0-.3,0-.5-.2-.3-.3-.4-.7,0-1.1h0c.3-.3.7-.4,1.1,0,.3.3.3.7,0,1.1-.2.2-.4.3-.6.3Z"/>
    </g>
  </g>
</svg>